<svg xmlns="http://www.w3.org/2000/svg" xmlns:xlink="http://www.w3.org/1999/xlink" viewBox="5287.174 3358 48 50.014">
  <defs>
    <style>
      .cls-1 {
        fill-rule: evenodd;
        fill: url(#linear-gradient);
      }
    </style>
    <linearGradient id="linear-gradient" x1="0.5" x2="0.5" y2="1" gradientUnits="objectBoundingBox">
      <stop offset="0" stop-color="#d1ab57"/>
      <stop offset="1" stop-color="#ffb719"/>
    </linearGradient>
  </defs>
  <path id="globe_1_" data-name="globe (1)" class="cls-1" d="M46.254,15.441A26.223,26.223,0,0,1,48.1,25.007a25.558,25.558,0,0,1-1.846,9.566l-.839,2.014A23.857,23.857,0,0,1,24.1,50.014,24.013,24.013,0,0,1,2.785,36.42a25.594,25.594,0,0,1,0-22.825l.168-.5A23.846,23.846,0,0,1,23.932,0,24.363,24.363,0,0,1,45.247,13.091Zm-5.2,7.72H43.9a21.916,21.916,0,0,0-1.678-6.713H39.708A20.748,20.748,0,0,1,41.051,23.161Zm-1.007,10.07h2.35a21.79,21.79,0,0,0,1.51-6.713H41.051A24.138,24.138,0,0,1,40.044,33.231Zm.671,3.357H39.037a29.207,29.207,0,0,1-1.846,4.2A21.252,21.252,0,0,0,40.715,36.587ZM26.617,4.364a32.7,32.7,0,0,1,4.867,8.727h3.524A27.252,27.252,0,0,0,28.8,4.867S27.624,4.531,26.617,4.364ZM13.359,13.091h4.028a38.045,38.045,0,0,1,4.7-8.9,17.835,17.835,0,0,0-2.35.5A25.926,25.926,0,0,0,13.359,13.091Zm21.986,23.5H31.82a80.391,80.391,0,0,1-3.189,8.727c1.51-.336,2.47-.434,3.189-1.678A37.082,37.082,0,0,0,35.345,36.587Zm1.007-3.357a39.89,39.89,0,0,0,1.175-6.713H33.5a31.936,31.936,0,0,1-.839,6.713ZM19.9,16.448a31.936,31.936,0,0,0-.839,6.713H29.974a31.936,31.936,0,0,0-.839-6.713Zm8.056-3.357a28.5,28.5,0,0,0-3.692-7.049,34.564,34.564,0,0,0-3.524,7.049Zm1.007,20.14a28.266,28.266,0,0,0,.839-6.713H18.9A40.271,40.271,0,0,0,19.9,33.231Zm-8.224,3.357a44.809,44.809,0,0,0,3.692,9.231,55.4,55.4,0,0,0,3.692-9.231Zm-3.692,0h-3.86a47.6,47.6,0,0,0,3.357,6.881c.56.969,2.014,1.678,3.86,2.014A73.19,73.19,0,0,1,17.051,36.587Zm-.839-3.357a31.936,31.936,0,0,1-.839-6.713H10.841a39.89,39.89,0,0,0,1.175,6.713Zm-.839-10.07a37.759,37.759,0,0,1,1.007-6.713H12.016a24.58,24.58,0,0,0-1.175,6.713Zm17.119-6.713A37.759,37.759,0,0,1,33.5,23.161h4.2a33.214,33.214,0,0,0-1.175-6.713ZM11.68,41.455c-.839-1.678-1.51-3.357-2.182-4.867H7.317A20.166,20.166,0,0,0,11.68,41.455ZM7.317,23.161a26.433,26.433,0,0,1,1.343-6.713H5.806a21.916,21.916,0,0,0-1.678,6.713ZM3.96,26.517a21.79,21.79,0,0,0,1.51,6.713H8.324a35.349,35.349,0,0,1-1.175-6.713H3.96ZM7.485,13.091h2.35a23.4,23.4,0,0,1,4.2-6.042A18.854,18.854,0,0,0,7.485,13.091ZM34.506,7.385a22.157,22.157,0,0,1,3.86,5.874H40.38A17.864,17.864,0,0,0,34.506,7.385Z" transform="translate(5287.074 3358)"/>
</svg>
