<svg xmlns="http://www.w3.org/2000/svg" xmlns:xlink="http://www.w3.org/1999/xlink" viewBox="5287 3489 48 38.246">
  <defs>
    <style>
      .cls-1 {
        fill: url(#linear-gradient);
      }
    </style>
    <linearGradient id="linear-gradient" x1="0.5" x2="0.5" y2="1" gradientUnits="objectBoundingBox">
      <stop offset="0" stop-color="#d1ab57"/>
      <stop offset="1" stop-color="#ffb719"/>
    </linearGradient>
  </defs>
  <g id="running" transform="translate(5271.873 3456.212)">
    <g id="Group_36" data-name="Group 36" transform="translate(15.127 32.788)">
      <path id="Path_30" data-name="Path 30" class="cls-1" d="M144.584,52.319h-5.8l-1.622-9.088a7.328,7.328,0,0,0,3.643.947c3.643,0,6.6-2.556,6.6-5.7s-2.962-5.7-6.6-5.7-6.606,2.555-6.606,5.7a4.962,4.962,0,0,0,.378,1.881l-3.61-2.665a4.451,4.451,0,0,0-2.634-.837H115.329A2.661,2.661,0,0,0,112.5,39.3a2.661,2.661,0,0,0,2.831,2.441h11.683l-9.821,6.65a6.024,6.024,0,0,0-2.806,4.977A6.147,6.147,0,0,0,117.76,58.7l8.757,4.853L119.134,66.2a2.7,2.7,0,0,0-1.6,1.441,2.187,2.187,0,0,0,.144,1.994,2.979,2.979,0,0,0,2.57,1.349,3.257,3.257,0,0,0,1.161-.212L131.587,66.9a3.926,3.926,0,0,0,2.617-3.541,3.675,3.675,0,0,0-1.329-2.764l-5.784-4.987,5.452-4.114.421,2.9a3.573,3.573,0,0,0,3.682,2.806h7.938a2.468,2.468,0,1,0,0-4.882Zm-3.775-17.905c2.6,0,4.718,1.825,4.718,4.068s-2.116,4.068-4.718,4.068-4.719-1.825-4.719-4.068S138.208,34.414,140.809,34.414Zm3.775,21.16h-7.938a1.758,1.758,0,0,1-1.809-1.38l-.862-5.941-9.647,7.275,7.212,6.217a2.144,2.144,0,0,1,.776,1.613,2.286,2.286,0,0,1-1.51,2.061l-10.159,3.865a1.074,1.074,0,0,1-1.291-.392.75.75,0,0,1-.05-.691.928.928,0,0,1,.553-.5l8.021-2.881a1.345,1.345,0,0,0,.934-1.1,1.265,1.265,0,0,0-.695-1.222l-9.338-5.176a4.571,4.571,0,0,1-2.507-3.959,4.478,4.478,0,0,1,2.085-3.7l11.6-7.855-1.971-1.7H115.329a.823.823,0,1,1,0-1.627h13.007a2.375,2.375,0,0,1,1.406.445l5.47,4.043,1.956,10.97h7.416a.823.823,0,1,1,0,1.627Z" transform="translate(-99.414 -32.788)"/>
      <path id="Path_31" data-name="Path 31" class="cls-1" d="M51.833,167.229a1.55,1.55,0,0,1-1.853.186,1.177,1.177,0,0,1-.573-.824,1.078,1.078,0,0,1,.312-.921L62.261,152.7l-1.449-1.043L48.268,164.629a2.574,2.574,0,0,0-.733,2.173,2.8,2.8,0,0,0,1.348,1.939,3.638,3.638,0,0,0,1.9.527,3.511,3.511,0,0,0,2.465-.967l10.881-10.71-1.42-1.072Z" transform="translate(-47.508 -131.022)"/>
    </g>
  </g>
</svg>
