<svg xmlns="http://www.w3.org/2000/svg" xmlns:xlink="http://www.w3.org/1999/xlink" viewBox="5705 3489 62.7 48">
  <defs>
    <style>
      .cls-1 {
        fill: url(#linear-gradient);
      }
    </style>
    <linearGradient id="linear-gradient" x1="0.5" x2="0.5" y2="1" gradientUnits="objectBoundingBox">
      <stop offset="0" stop-color="#d1ab57"/>
      <stop offset="1" stop-color="#ffb719"/>
    </linearGradient>
  </defs>
  <g id="tv" transform="translate(5705 3443.352)">
    <g id="Group_38" data-name="Group 38" transform="translate(0 45.648)">
      <g id="Group_37" data-name="Group 37">
        <path id="Path_32" data-name="Path 32" class="cls-1" d="M91.09,144.435H87.94a.256.256,0,0,0-.256.256v1.123a.256.256,0,0,0,.256.256h1.771v8.92a.256.256,0,0,0,.256.256H91.09a.256.256,0,0,0,.256-.256v-10.3A.256.256,0,0,0,91.09,144.435Z" transform="translate(-73.566 -128.529)"/>
        <path id="Path_33" data-name="Path 33" class="cls-1" d="M124.238,144.435a4.033,4.033,0,0,0-3.268,1.441,7.435,7.435,0,0,0,0,7.926,4.43,4.43,0,0,0,6.546,0,7.414,7.414,0,0,0,0-7.926A4.05,4.05,0,0,0,124.238,144.435Zm0,9.176c-1.843,0-2.777-1.271-2.777-3.777s.934-3.764,2.777-3.764,2.791,1.266,2.791,3.764S126.09,153.611,124.238,153.611Z" transform="translate(-100.532 -128.529)"/>
        <path id="Path_34" data-name="Path 34" class="cls-1" d="M182.857,149.432a2.694,2.694,0,0,0,.886-2.072c0-1.8-1.338-2.926-3.493-2.926s-3.507,1.121-3.507,2.926a2.694,2.694,0,0,0,.886,2.072,2.924,2.924,0,0,0-1.319,2.509c0,2.038,1.509,3.3,3.939,3.3s3.926-1.266,3.926-3.3A2.926,2.926,0,0,0,182.857,149.432Zm-2.607-3.363c.694,0,1.858.171,1.858,1.318,0,1.17-1.164,1.345-1.858,1.345s-1.872-.175-1.872-1.345C178.379,146.241,179.552,146.07,180.251,146.07Zm0,7.541c-.861,0-2.3-.22-2.3-1.7,0-.983.835-1.548,2.291-1.548s2.3.569,2.3,1.561C182.541,153.392,181.106,153.611,180.251,153.611Z" transform="translate(-147.923 -128.529)"/>
        <path id="Path_35" data-name="Path 35" class="cls-1" d="M231.16,144.435a4.033,4.033,0,0,0-3.268,1.441,7.434,7.434,0,0,0,0,7.926,4.429,4.429,0,0,0,6.545,0,7.414,7.414,0,0,0,0-7.926A4.049,4.049,0,0,0,231.16,144.435Zm0,9.176c-1.843,0-2.777-1.271-2.777-3.777s.934-3.764,2.777-3.764,2.791,1.266,2.791,3.764S233.012,153.611,231.16,153.611Z" transform="translate(-190.238 -128.529)"/>
        <path id="Path_36" data-name="Path 36" class="cls-1" d="M342.29,92.458h-1.047l-.5,2.97h1.047a1.861,1.861,0,0,0,1.784-1.482A1.246,1.246,0,0,0,342.29,92.458Z" transform="translate(-285.879 -84.921)"/>
        <path id="Path_37" data-name="Path 37" class="cls-1" d="M62.178,53.409l-7.239-7.24a1.783,1.783,0,0,0-2.521,0l-1.565,1.564H4.787A4.792,4.792,0,0,0,0,52.521V81.615A4.752,4.752,0,0,0,4.706,86.4H22.125l-1.9,4.266a2.119,2.119,0,0,0,1.936,2.98H37.3a2.12,2.12,0,0,0,1.885-3.088L37.341,86.4H54.6a4.833,4.833,0,0,0,4.868-4.787V58.643l2.712-2.712A1.782,1.782,0,0,0,62.178,53.409ZM49.385,52.351a.232.232,0,0,1,.22-.188h.645a.155.155,0,0,1,.157.188l-.3,1.787H52.16l.3-1.787a.233.233,0,0,1,.22-.188h.645a.155.155,0,0,1,.157.188L52.7,56.989a.232.232,0,0,1-.22.188h-.645a.155.155,0,0,1-.157-.188l.307-1.828H49.935l-.307,1.828a.232.232,0,0,1-.22.188h-.646a.155.155,0,0,1-.157-.188ZM25.426,89.41,26.763,86.4H32.7l1.337,3.008Zm29.8-7.795a.574.574,0,0,1-.63.549H4.706a.54.54,0,0,1-.469-.549V52.521a.55.55,0,0,1,.549-.549H46.615l-1.437,1.437a1.783,1.783,0,0,0,0,2.521l7.239,7.24a1.783,1.783,0,0,0,2.521,0l.289-.289V81.615Zm3.49-26.942a3.12,3.12,0,0,1-2.978,2.5H53.859a.155.155,0,0,1-.157-.188l.779-4.638a.232.232,0,0,1,.22-.188h1.881A2.088,2.088,0,0,1,58.718,54.673Z" transform="translate(0 -45.648)"/>
      </g>
    </g>
  </g>
</svg>
