<svg xmlns="http://www.w3.org/2000/svg" xmlns:xlink="http://www.w3.org/1999/xlink" viewBox="6121.485 3489 48 48.002">
  <defs>
    <style>
      .cls-1 {
        fill: url(#linear-gradient);
      }
    </style>
    <linearGradient id="linear-gradient" x1="0.5" x2="0.5" y2="1" gradientUnits="objectBoundingBox">
      <stop offset="0" stop-color="#d1ab57"/>
      <stop offset="1" stop-color="#ed9908"/>
    </linearGradient>
  </defs>
  <path id="steam_1_" data-name="steam (1)" class="cls-1" d="M38.813,89.34a5.787,5.787,0,0,0-1.781-4.266,5.863,5.863,0,0,0-4.28-1.766,6.032,6.032,0,1,0,0,12.064,5.859,5.859,0,0,0,4.28-1.766,5.8,5.8,0,0,0,1.781-4.266ZM19.75,107.715a5.947,5.947,0,0,1-1.813,4.391,5.988,5.988,0,0,1-4.375,1.8A6.009,6.009,0,0,1,10.344,113a6.1,6.1,0,0,1-2.25-2.406q1.626.625,3.062,1.25a4.735,4.735,0,0,0,3.75-.047,4.806,4.806,0,0,0,2.656-2.7,4.9,4.9,0,0,0-2.751-6.375l-2.562-1.031a6.086,6.086,0,0,1,5.687,1.642,5.947,5.947,0,0,1,1.813,4.391ZM48,82.122v30a9.016,9.016,0,0,1-9,9H9a8.669,8.669,0,0,1-6.359-2.641A8.669,8.669,0,0,1,0,112.122v-4.781L5.374,109.5A8.22,8.22,0,0,0,8.3,114.246a8.1,8.1,0,0,0,5.266,1.874,8.136,8.136,0,0,0,5.656-2.187,8.139,8.139,0,0,0,2.719-5.406l10.782-7.875a11.266,11.266,0,1,0,0-22.533,10.8,10.8,0,0,0-7.906,3.265,10.948,10.948,0,0,0-3.344,7.891L14.437,99.338a8.7,8.7,0,0,0-.875-.032,8.192,8.192,0,0,0-4.28,1.157L0,96.745V82.12a8.669,8.669,0,0,1,2.641-6.359A8.669,8.669,0,0,1,9,73.12H39a9.016,9.016,0,0,1,9,9ZM40.281,89.4a7.233,7.233,0,0,1-2.219,5.329,7.565,7.565,0,0,1-10.673,0,7.556,7.556,0,0,1,5.329-12.892A7.523,7.523,0,0,1,40.281,89.4Z" transform="translate(6121.485 3415.88)"/>
</svg>
