<svg xmlns="http://www.w3.org/2000/svg" viewBox="6068 3022.42 32.86 30">
  <defs>
    <style>
      .cls-1 {
        fill: #fff;
      }
    </style>
  </defs>
  <g id="下载" transform="translate(6036.674 2959.726)">
    <path id="Path_27" data-name="Path 27" class="cls-1" d="M62.758,856.816h-30a1.43,1.43,0,0,0-1.429,1.428,1.429,1.429,0,0,0,1.429,1.428h30a1.429,1.429,0,0,0,1.429-1.428A1.429,1.429,0,0,0,62.758,856.816Z" transform="translate(0 -766.978)"/>
    <path id="Path_28" data-name="Path 28" class="cls-1" d="M228.272,86.711a1.1,1.1,0,0,0,1.432,0l9.1-8.753a.567.567,0,0,0,.111-.746c-.156-.251-.988-.231-1.35-.231h-3.572V64.123a1.309,1.309,0,0,0-1.429-1.429h-7.143a1.309,1.309,0,0,0-1.429,1.429V76.98H219.7c-.362,0-.479-.019-.636.231a.566.566,0,0,0,.11.746Z" transform="translate(-181.232 0)"/>
  </g>
</svg>
