<svg xmlns="http://www.w3.org/2000/svg" xmlns:xlink="http://www.w3.org/1999/xlink" viewBox="0 0 20 21.658">
  <defs>
    <style>
      .cls-1 {
        fill: url(#linear-gradient);
      }
    </style>
    <linearGradient id="linear-gradient" x1="0.5" x2="0.5" y2="1" gradientUnits="objectBoundingBox">
      <stop offset="0" stop-color="#d1ab57"/>
      <stop offset="1" stop-color="#ffb719"/>
    </linearGradient>
  </defs>
  <g id="åŠ¨æ€" transform="translate(-39.206)">
    <path id="Path_65" data-name="Path 65" class="cls-1" d="M56.3,15.031v-6.7a7.082,7.082,0,0,0-5.842-6.968V.833A.833.833,0,0,0,49.622,0h-.833a.833.833,0,0,0-.833.833v.534A7.081,7.081,0,0,0,42.13,8.333v6.7L39.205,17.4v1.351h20V17.4L56.3,15.031Z"/>
    <path id="Path_66" data-name="Path 66" class="cls-1" d="M415.6,927.577a2.084,2.084,0,0,0,2.086-2.083H413.52a2.083,2.083,0,0,0,2.083,2.083Z" transform="translate(-366.397 -905.919)"/>
  </g>
</svg>
