<svg xmlns="http://www.w3.org/2000/svg" xmlns:xlink="http://www.w3.org/1999/xlink" viewBox="6112 2732 32 32.164">
  <defs>
    <style>
      .cls-1 {
        fill: url(#linear-gradient);
      }
    </style>
    <linearGradient id="linear-gradient" x1="0.5" x2="0.5" y2="1" gradientUnits="objectBoundingBox">
      <stop offset="0" stop-color="#d1ab57"/>
      <stop offset="1" stop-color="#ffb719"/>
    </linearGradient>
  </defs>
  <path id="people" class="cls-1" d="M29.641,13.1h-.456v-.464a12.639,12.639,0,1,0-25.277,0V13.1H3.453A2.909,2.909,0,0,0,.547,16.008v4.25a2.909,2.909,0,0,0,2.906,2.906h1.62a.748.748,0,0,0,.687-.452,23.826,23.826,0,0,0,4.894,6.506.529.529,0,0,0,.352.134h0a.53.53,0,0,0,.492-.726c-.014-.049-.037-.136-.068-.254A11.9,11.9,0,0,0,15.2,31.535a5.532,5.532,0,0,0,5.122,0,11.85,11.85,0,0,0,3.591-2.948,7.4,7.4,0,0,0,4.7-5.423h1.027a2.909,2.909,0,0,0,2.906-2.906v-4.25A2.909,2.909,0,0,0,29.641,13.1ZM6.317,8.225A11.141,11.141,0,0,1,27.23,9.475a3.8,3.8,0,0,0-1.822-1.019A6.372,6.372,0,0,0,24.27,6.429a9.19,9.19,0,0,0-7.358-3.287,14.493,14.493,0,0,0-5.2,1.055A12.426,12.426,0,0,0,6.317,8.225ZM19.833,30.6a4.474,4.474,0,0,1-4.14,0,11.427,11.427,0,0,1-4.632-4.682c-.029-.052-.056-.106-.085-.159-.2-2.019-.056-4.576,1.547-5.922,1.242-1.042,3.331-1.528,5.352-2,2.53-.588,5.131-1.193,6.565-2.906a3.2,3.2,0,0,1,.98,1.629,8.684,8.684,0,0,1-.155,4.275.529.529,0,0,0,.751.64l.035-.02a16.19,16.19,0,0,1-1.587,4.459c-.225.4-.46.774-.7,1.119a5.837,5.837,0,0,1-2.366.5h-.774a2.149,2.149,0,0,0-2.01-1.4H16.571a2.147,2.147,0,0,0,0,4.294h2.045a2.149,2.149,0,0,0,2.01-1.4H21.4c.228,0,.454-.011.676-.031A10.379,10.379,0,0,1,19.833,30.6Zm6.05-5.148a19.728,19.728,0,0,0,1.391-4.681v.892A5.847,5.847,0,0,1,25.883,25.449Z" transform="translate(6111.453 2732)"/>
</svg>
