<svg xmlns="http://www.w3.org/2000/svg" viewBox="2452.305 498.695 40 22.609">
  <defs>
    <style>
      .cls-1 {
        fill: #fe7200;
        opacity: 0.7;
      }
    </style>
  </defs>
  <path id="back" class="cls-1" d="M222.942,21.111a2.209,2.209,0,0,0,.308.5.875.875,0,0,1,.083.071c.037.032.05.085.082.117l17.633,17.535a2.353,2.353,0,0,0,3.413-.065,2.55,2.55,0,0,0-.063-3.528L228.489,19.927,244.46,4.341a2.55,2.55,0,0,0,.1-3.525,2.365,2.365,0,0,0-3.419-.1l-17.8,17.365a2.53,2.53,0,0,0-.484,2.878c.019.052.063.1.089.15" transform="translate(2452.27 743.912) rotate(-90)"/>
</svg>
