<?xml version="1.0" encoding="utf-8"?>
<!-- Generator: Adobe Illustrator 22.1.0, SVG Export Plug-In . SVG Version: 6.00 Build 0)  -->
<svg version="1.1" id="图层_1" xmlns="http://www.w3.org/2000/svg" xmlns:xlink="http://www.w3.org/1999/xlink" x="0px" y="0px"
	 viewBox="0 0 362 166" enable-background="new 0 0 362 166" xml:space="preserve">
<g id="形状_2_拷贝_8">
	<g>
		<polygon fill-rule="evenodd" clip-rule="evenodd" fill="#FF7200" points="120.7,0 100,35.8 141.5,35.8 		"/>
	</g>
</g>
<g id="Tencent_Neo-Culture_Creativity_Eco-Conference">
	<g>
		<path fill-rule="evenodd" clip-rule="evenodd" fill="#FFFFFF" d="M339.9,26.8h-3.7v3.6l-8.8,9.8l2.7,2.4l7.9-8.8l7.9,8.8l2.7-2.4
			l-8.8-9.8V26.8z M336.8,55.8v3.6h9V43.5h-15.5v27.8H345l3.5-7.2l-3.3-1.6l-2.5,5.2h-8.7V47.1h8.2v8.7H336.8z M350.5,71.4h10.4
			V26.9h-3.7v40.8h-6.8V71.4z M353.6,31.5h-3.7v30.2h3.7V31.5z M209.9,121.6h-14.3v-12h12.8v-3.6h-12.8V93.7h13V90h-13v-9.4h-3.7V90
			h-9.2v-6.6h-3.7v8.2l-3.2,8.1l3.4,1.3l2.8-7.3h9.8v12.2h-14.8v3.6h14.8v12h-16.3v3.6h34.2V121.6z M270.2,80.8h-3.7v12.8h-15.3v3.6
			h14.5l-14.4,26.4l3.2,1.7l13.8-25.3l13.8,25.3l3.2-1.7l-14.4-26.4h14.5v-3.6h-15.3V80.8z M292.7,125.3h25.5l3.1-8.2l-3.4-1.3
			l-2.1,5.8h-19.3V121l4.4-10.9h22.5v-3.6h-34.2v3.6h7.7l-4.1,10.1V125.3z M296.5,100.5h19.3v-3.6h-19.3V100.5z M306.2,87.1
			l14.7,13.2l2.4-2.7L308,83.8v-3h-3.7v3L289,97.5l2.5,2.7L306.2,87.1z M216.8,71.5h7.2v-3.6h-3.6v-27h-6.9v3.6h3.2V71.5z
			 M228.8,72.3h3.7V51.9h8.5v19.4h6.9v-3.6h-3.3V28.3h-20.4V32h4.6v16.3h-5.3v3.6h5.3V72.3z M232.4,32h8.5v16.3h-8.5V32z
			 M217.8,36.5c1.2,0,2.3-1,2.3-2.2s-1-2.2-2.3-2.2c-1.2,0-2.3,1-2.3,2.2S216.5,36.5,217.8,36.5z M269.2,31.5h-6.9v-4.6h-3.7v4.6
			h-6.8v3.6h17.3V31.5z M258.7,67.7h-2.5v3.6h6.2V56.6h7.3v-3.6h-7.3v-6.1h7.3v-3.6h-18.3v3.6h7.3v6.1h-7.3v3.6h7.3V67.7z
			 M275.1,33.5h7.6l2.9-3.6l-2.8-2.3l-1.8,2.2h-9.5v34.4l-2.9,5.3l3.2,1.8l3.4-6.1V47.1h3.9v25.2h3.7V47.1h2.9v-3.6h-10.5V33.5z
			 M254.2,38.7c0,1.2,1,2.2,2.3,2.2s2.3-1,2.3-2.2c0-1.2-1-2.2-2.3-2.2S254.2,37.5,254.2,38.7z M262,38.7c0,1.2,1,2.2,2.3,2.2
			c1.2,0,2.3-1,2.3-2.2c0-1.2-1-2.2-2.3-2.2C263,36.5,262,37.5,262,38.7z M251.7,62.2c0,1.2,1,2.2,2.3,2.2c1.2,0,2.3-1,2.3-2.2
			c0-1.2-1-2.2-2.3-2.2C252.7,60,251.7,61,251.7,62.2z M264.3,62.2c0,1.2,1,2.2,2.3,2.2c1.2,0,2.3-1,2.3-2.2c0-1.2-1-2.2-2.3-2.2
			C265.3,60,264.3,61,264.3,62.2z M291.4,71.3l14.9-11.7l15,11.7l2.3-2.8l-14.3-11.2l8.3-6.5V38.4h5.9v-3.6h-34.2v3.6h5.9v12.3
			l8.3,6.5l-14.3,11.2L291.4,71.3z M298.8,49V38.4h15.1V49l-7.6,6L298.8,49z M306.3,31.6c1.2,0,2.3-1,2.3-2.2c0-1.2-1-2.2-2.3-2.2
			c-1.2,0-2.3,1-2.3,2.2C304.1,30.6,305.1,31.6,306.3,31.6z M242.4,120.5l-2.9-2.2l-2.5,3.2h-12.4V108h-3.7v17.3h17.9L242.4,120.5z
			 M230.5,91.7l14.4,14.4l2.6-2.5L234.1,90h13v-3.6h-14.7v-5.6h-3.7v5.6h-14.6V90h13l-13.5,13.6l2.6,2.5L230.5,91.7z M230.6,98.8
			c-1.2,0-2.3,1-2.3,2.2s1,2.2,2.3,2.2c1.2,0,2.3-1,2.3-2.2S231.8,98.8,230.6,98.8z M230.6,112.5c0,1.2,1,2.2,2.3,2.2
			c1.2,0,2.3-1,2.3-2.2c0-1.2-1-2.2-2.3-2.2C231.6,110.2,230.6,111.3,230.6,112.5z M245.1,112.5c-1.2,0-2.3,1-2.3,2.2s1,2.2,2.3,2.2
			c1.2,0,2.3-1,2.3-2.2S246.3,112.5,245.1,112.5z M213.8,114.7c0,1.2,1,2.2,2.3,2.2c1.2,0,2.3-1,2.3-2.2s-1-2.2-2.3-2.2
			C214.8,112.5,213.8,113.5,213.8,114.7z M180.9,66.4v-11c0.4,0.5,1,0.9,1.8,0.9c0.7,0,1.3-0.3,1.7-0.8V68h-2.1v3.6h5.8v-43h-10.8
			V66l-1.4,4.8l3.5,1L180.9,66.4z M180.9,32.3h3.5v8.9c-0.4-0.5-1-0.8-1.7-0.8c-0.7,0-1.4,0.3-1.8,0.9V32.3z M180.9,44
			c0.4,0.5,1,0.9,1.8,0.9c0.7,0,1.3-0.3,1.7-0.8v8.5c-0.4-0.5-1-0.8-1.7-0.8c-0.7,0-1.4,0.3-1.8,0.9V44z M191.6,53.1l0.5-0.5h10.7
			V58h-7v-3.8h-3.7v7.5h12.7v10.5h3.7V58h-2v-5.8l0.9,0.9l2.6-2.5l-6.5-6.5h6.5v-3.6h-8.6v-3.1h8.6v-3.6h-8.6V27h-3.7v6.7H189v3.6
			h8.6v3.1H189v3.6h6.5l-6.5,6.5L191.6,53.1z M199.5,45.2l3.7,3.7h-7.5L199.5,45.2z M189.9,68.6h13.9v-3.6h-13.9V68.6z M206.2,32.1
			c1.2,0,2.3-1,2.3-2.2c0-1.2-1-2.2-2.3-2.2c-1.2,0-2.3,1-2.3,2.2C203.9,31.1,204.9,32.1,206.2,32.1z M192.6,32.1
			c1.2,0,2.3-1,2.3-2.2c0-1.2-1-2.2-2.3-2.2c-1.2,0-2.3,1-2.3,2.2C190.3,31.1,191.4,32.1,192.6,32.1z M100,51.8
			c-9.1,0-17.5,3.2-24,8.5V26.9H62v53.3c-0.6,12.6-11.1,22.7-24,22.7c-13.3,0-24-10.7-24-23.9h0V26.9H0V79h0c0,20.9,17,37.8,38,37.8
			c9.1,0,17.4-3.2,24-8.5v56.3h14V119c6.5,5.3,14.9,8.5,24,8.5c21,0,38-16.9,38-37.8C138,68.8,120.9,51.8,100,51.8z M100,113.5
			c-13.3,0-24-10.7-24-23.9c0-13.2,10.7-23.9,24-23.9c13.3,0,24,10.7,24,23.9C124,102.9,113.2,113.5,100,113.5z M177.6,148.4h1.4
			v-8.6h1.7v-1.3h-4.7v1.3h1.7V148.4z M186.7,146.9h-2.8V144h2.5v-1.3h-2.5v-2.9h2.8v-1.3h-4.3v10h4.3V146.9z M190.1,142.4
			L190.1,142.4l2.2,6h1.3v-10h-1.4v6h0l-2.2-6h-1.4v10h1.4V142.4z M200.6,146.1v-0.6h-1.4v0.5c0,0.8-0.5,1-0.9,1
			c-0.6,0-0.9-0.4-0.9-1v-5.1c0-0.7,0.2-1.2,0.9-1.2c0.5,0,0.9,0.5,0.9,1v0.5h1.4v-0.6c0-1.4-1-2.4-2.3-2.4c-1.4,0-2.3,1-2.3,2.3
			v5.5c0,1.8,1.3,2.4,2.4,2.4C199.6,148.4,200.6,147.4,200.6,146.1z M207.1,146.9h-2.8V144h2.5v-1.3h-2.5v-2.9h2.8v-1.3h-4.3v10h4.3
			V146.9z M210.5,142.4L210.5,142.4l2.2,6h1.3v-10h-1.4v6h0l-2.2-6h-1.4v10h1.4V142.4z M217.4,148.4h1.4v-8.6h1.7v-1.3h-4.7v1.3h1.7
			V148.4z M229.5,144.4L229.5,144.4l-2.2-6h-1.4v10h1.4v-6h0l2.2,6h1.3v-10h-1.4V144.4z M237.6,139.7v-1.3h-4.3v10h4.3v-1.4h-2.8
			V144h2.5v-1.3h-2.5v-2.9H237.6z M244.3,140.7c0-1.6-1.2-2.4-2.4-2.4c-1.2,0-2.4,0.8-2.4,2.4v5.3c0,1.6,1.2,2.4,2.4,2.4
			c1.2,0,2.4-0.8,2.4-2.4V140.7z M242.9,146c0,0.7-0.4,1-1,1c-0.5,0-1-0.3-1-1v-5.3c0-0.7,0.4-1,1-1c0.5,0,1,0.3,1,1V146z
			 M250.9,143.8h-4.2v1.4h4.2V143.8z M255.5,138.3c-1.4,0-2.3,1-2.3,2.3v5.5c0,1.8,1.3,2.4,2.4,2.4c1.3,0,2.3-1.1,2.3-2.3v-0.6h-1.4
			v0.5c0,0.8-0.5,1-0.9,1c-0.6,0-0.9-0.4-0.9-1v-5.1c0-0.7,0.2-1.2,0.9-1.2c0.5,0,0.9,0.5,0.9,1v0.5h1.4v-0.6
			C257.8,139.3,256.8,138.3,255.5,138.3z M263.3,146c0,0.7-0.4,1-0.9,1c-0.5,0-0.9-0.3-0.9-1v-7.6h-1.4v7.7c0,1.3,1,2.3,2.3,2.3
			c1.3,0,2.3-1,2.3-2.3v-7.7h-1.4V146z M268.6,138.4h-1.4v10h4.3v-1.4h-2.8V138.4z M272.8,139.7h1.7v8.6h1.4v-8.6h1.7v-1.3h-4.7
			V139.7z M282.4,146c0,0.7-0.4,1-0.9,1c-0.5,0-0.9-0.3-0.9-1v-7.6h-1.4v7.7c0,1.3,1,2.3,2.3,2.3s2.3-1,2.3-2.3v-7.7h-1.4V146z
			 M291.1,141.3c0-1.9-0.8-2.9-2.5-2.9h-2.3v10h1.4v-4.3h0.9l1.3,4.3h1.5l-1.5-4.6C290.8,143.3,291.1,142.5,291.1,141.3z
			 M288.6,142.8h-0.8v-3.1h0.7c1.1,0,1.2,0.5,1.2,1.6C289.7,142.3,289.6,142.8,288.6,142.8z M293.4,148.4h4.3v-1.4h-2.8V144h2.5
			v-1.3h-2.5v-2.9h2.8v-1.3h-4.3V148.4z M305.7,138.3c-1.4,0-2.3,1-2.3,2.3v5.5c0,1.8,1.3,2.4,2.4,2.4c1.3,0,2.3-1.1,2.3-2.3v-0.6
			h-1.4v0.5c0,0.8-0.5,1-0.9,1c-0.6,0-0.9-0.4-0.9-1v-5.1c0-0.7,0.2-1.2,0.9-1.2c0.5,0,0.9,0.5,0.9,1v0.5h1.4v-0.6
			C308,139.3,307,138.3,305.7,138.3z M315.1,141.3c0-1.9-0.8-2.9-2.5-2.9h-2.3v10h1.4v-4.3h0.9l1.3,4.3h1.5l-1.5-4.6
			C314.8,143.3,315.1,142.5,315.1,141.3z M312.5,142.8h-0.8v-3.1h0.7c1.1,0,1.2,0.5,1.2,1.6C313.6,142.3,313.5,142.8,312.5,142.8z
			 M317.3,148.4h4.3v-1.4h-2.8V144h2.5v-1.3h-2.5v-2.9h2.8v-1.3h-4.3V148.4z M325.2,138.4l-2.2,10h1.4l0.4-2.1h1.9l0.4,2.1h1.4
			l-2.2-10H325.2z M325.1,144.9l0.7-3.6h0l0.7,3.6H325.1z M329.7,139.7h1.7v8.6h1.4v-8.6h1.7v-1.3h-4.7V139.7z M336.3,148.4h1.4v-10
			h-1.4V148.4z M342.4,145.3L342.4,145.3l-1.2-7h-1.5l2,10h1.3l2-10h-1.5L342.4,145.3z M347.1,148.4h1.4v-10h-1.4V148.4z
			 M350.3,139.7h1.7v8.6h1.4v-8.6h1.7v-1.3h-4.7V139.7z M360,138.4l-1.1,4h0l-1.1-4h-1.5l2,5.8v4.2h1.4v-4.2l2-5.8H360z
			 M176.6,165.2h4.3v-1.4h-2.8v-2.9h2.5v-1.3h-2.5v-2.9h2.8v-1.3h-4.3V165.2z M185.2,155.1c-1.4,0-2.3,1-2.3,2.3v5.5
			c0,1.8,1.3,2.4,2.4,2.4c1.3,0,2.3-1.1,2.3-2.3v-0.6h-1.4v0.5c0,0.8-0.5,1-0.9,1c-0.6,0-0.9-0.4-0.9-1v-5.1c0-0.7,0.2-1.2,0.9-1.2
			c0.5,0,0.9,0.5,0.9,1v0.5h1.4v-0.6C187.5,156.1,186.5,155.1,185.2,155.1z M192.1,155.1c-1.2,0-2.4,0.8-2.4,2.4v5.3
			c0,1.6,1.2,2.4,2.4,2.4c1.2,0,2.4-0.8,2.4-2.4v-5.3C194.5,155.9,193.2,155.1,192.1,155.1z M193,162.8c0,0.7-0.4,1-1,1s-1-0.3-1-1
			v-5.3c0-0.7,0.4-1,1-1s1,0.3,1,1V162.8z M196.8,162h4.2v-1.4h-4.2V162z M205.7,155.1c-1.4,0-2.3,1-2.3,2.3v5.5
			c0,1.8,1.3,2.4,2.4,2.4c1.3,0,2.3-1.1,2.3-2.3v-0.6h-1.4v0.5c0,0.8-0.5,1-0.9,1c-0.6,0-0.9-0.4-0.9-1v-5.1c0-0.7,0.2-1.2,0.9-1.2
			c0.5,0,0.9,0.5,0.9,1v0.5h1.4v-0.6C207.9,156.1,207,155.1,205.7,155.1z M212.5,155.1c-1.2,0-2.4,0.8-2.4,2.4v5.3
			c0,1.6,1.2,2.4,2.4,2.4c1.2,0,2.4-0.8,2.4-2.4v-5.3C214.9,155.9,213.7,155.1,212.5,155.1z M213.5,162.8c0,0.7-0.4,1-1,1
			c-0.5,0-1-0.3-1-1v-5.3c0-0.7,0.4-1,1-1c0.5,0,1,0.3,1,1V162.8z M220.8,161.2L220.8,161.2l-2.2-6h-1.4v10h1.4v-6h0l2.2,6h1.3v-10
			h-1.4V161.2z M224.6,165.2h1.4v-4.3h2.5v-1.3h-2.5v-3h2.8v-1.3h-4.3V165.2z M230.9,165.2h4.3v-1.4h-2.8v-2.9h2.5v-1.3h-2.5v-2.9
			h2.8v-1.3h-4.3V165.2z M242.1,158.1c0-1.9-0.8-2.9-2.5-2.9h-2.3v10h1.4v-4.3h0.9l1.3,4.3h1.5l-1.5-4.6
			C241.7,160.1,242.1,159.3,242.1,158.1z M239.5,159.6h-0.8v-3.1h0.7c1.1,0,1.2,0.5,1.2,1.6C240.6,159.1,240.5,159.6,239.5,159.6z
			 M244.3,165.2h4.3v-1.4h-2.8v-2.9h2.5v-1.3h-2.5v-2.9h2.8v-1.3h-4.3V165.2z M254.1,161.2L254.1,161.2l-2.2-6h-1.4v10h1.4v-6h0
			l2.2,6h1.3v-10h-1.4V161.2z M260.2,155.1c-1.4,0-2.3,1-2.3,2.3v5.5c0,1.8,1.3,2.4,2.4,2.4c1.3,0,2.3-1.1,2.3-2.3v-0.6h-1.4v0.5
			c0,0.8-0.5,1-0.9,1c-0.6,0-0.9-0.4-0.9-1v-5.1c0-0.7,0.2-1.2,0.9-1.2c0.5,0,0.9,0.5,0.9,1v0.5h1.4v-0.6
			C262.5,156.1,261.5,155.1,260.2,155.1z M264.8,165.2h4.3v-1.4h-2.8v-2.9h2.5v-1.3h-2.5v-2.9h2.8v-1.3h-4.3V165.2z"/>
	</g>
</g>
</svg>
