<svg xmlns="http://www.w3.org/2000/svg" viewBox="1162 115.632 32.189 43.025">
  <defs>
    <style>
      .cls-1 {
        fill: #fff;
      }
    </style>
  </defs>
  <path id="mouse" class="cls-1" d="M89.787,0H86.008C78.2,0,72.083,5.558,72.083,12.654V30.37c0,7.1,6.117,12.655,13.925,12.655h3.779c7.987,0,14.486-5.677,14.486-12.655V12.654C104.272,5.676,97.774,0,89.787,0ZM88.032,6.631h.292a.783.783,0,0,1,.829.724v5.154a.783.783,0,0,1-.829.724h-.292a.783.783,0,0,1-.829-.724V7.355A.783.783,0,0,1,88.032,6.631ZM102.378,30.37c0,6.066-5.648,11-12.591,11H86.008c-6.746,0-12.031-4.832-12.031-11V12.654c0-6.168,5.285-11,12.031-11h1.211v3.43a2.445,2.445,0,0,0-1.911,2.27v5.154a2.444,2.444,0,0,0,1.911,2.27v4.257a.956.956,0,0,0,1.894,0V14.785a2.448,2.448,0,0,0,1.934-2.276V7.355a2.448,2.448,0,0,0-1.934-2.276V1.655h.673c6.943,0,12.591,4.934,12.591,11Z" transform="translate(1089.917 115.632)"/>
</svg>
