<?xml version="1.0" encoding="utf-8"?>
<!-- Generator: Adobe Illustrator 22.1.0, SVG Export Plug-In . SVG Version: 6.00 Build 0)  -->
<svg version="1.1" id="图层_1" xmlns="http://www.w3.org/2000/svg" xmlns:xlink="http://www.w3.org/1999/xlink" x="0px" y="0px"
	 viewBox="0 0 1126 430" enable-background="new 0 0 1126 430" xml:space="preserve">
<g id="形状_1">
	<g>
		<path fill-rule="evenodd" clip-rule="evenodd" fill="#FFFFFF" d="M34.3,116.1h51.4V54.2H34.3V116.1z M46.2,65.7h27.8v38.6H46.2
			V65.7z M6,20.5V147h11.8V32.7h84.6v102.4H91.9v11.8h22.3V20.5H6z M41.2,16c4.4,0,8-3.6,8-8s-3.6-8-8-8c-4.4,0-8,3.6-8,8
			S36.8,16,41.2,16z"/>
	</g>
</g>
<g id="形状_1_拷贝">
	<g>
		<path fill-rule="evenodd" clip-rule="evenodd" fill="#FFFFFF" d="M354.3,44.5H439v9.7h11.8V32.7H342.5v21.5h11.8V44.5z M450.8,0
			H342.5v11.8h108.3V0z M450.8,72.9V61.1h-76.4v-6.9h-11.8v6.9h-20v11.8h19l-19.2,70.6l11.4,3.1l20.1-73.7H450.8z M418.9,119.2
			l19.7-10.7h0.1V84.8h-65v23.7h0.7l19.7,10.7l-31.6,17.2l5.7,10.4l38.3-20.9l38.6,21l5.7-10.4L418.9,119.2z M385.6,101.1v-4.5h41.3
			v4.8l-20.4,11.1L385.6,101.1z M359.9,22.2c0,4.4,3.6,8,8,8c4.4,0,8-3.6,8-8c0-4.4-3.6-8-8-8C363.4,14.2,359.9,17.8,359.9,22.2z
			 M384.6,22.2c0,4.4,3.6,8,8,8c4.4,0,8-3.6,8-8c0-4.4-3.6-8-8-8C388.1,14.2,384.6,17.8,384.6,22.2z M422.8,22.2c0,4.4,3.6,8,8,8
			c4.4,0,8-3.6,8-8c0-4.4-3.6-8-8-8C426.3,14.2,422.8,17.8,422.8,22.2z"/>
	</g>
</g>
<g id="形状_1_拷贝_2">
	<g>
		<path fill-rule="evenodd" clip-rule="evenodd" fill="#FFFFFF" d="M683.3,146.9h11.8V44.6h17.6v102.4h11.8V44.6h15.3v102.4h11.8
			V44.6h17.7v90.6h-11v11.8h22.8V32.7h-97.9V146.9z M677.5,0.1v11.8h109.6V0.1H677.5z M726.2,22.2c0-4.4-3.6-8-8-8c-4.4,0-8,3.6-8,8
			c0,4.4,3.6,8,8,8C722.6,30.2,726.2,26.6,726.2,22.2z"/>
	</g>
</g>
<g id="形状_1_拷贝_3">
	<g>
		<polygon fill-rule="evenodd" clip-rule="evenodd" fill="#FFFFFF" points="1077.8,135.1 1077.8,84.6 1119.2,84.6 1119.2,72.8 
			1077.8,72.8 1077.8,32.7 1119.2,32.7 1119.2,20.9 1077.8,20.9 1077.8,0.1 1066,0.1 1066,20.9 1030,20.9 1030,20.9 1018.2,20.9 
			1018.2,44.6 1030,44.6 1030,32.7 1066,32.7 1066,72.8 1018.2,72.8 1018.2,84.6 1066,84.6 1066,135.1 1013.4,135.1 1013.4,146.9 
			1124,146.9 1124,135.1 		"/>
	</g>
</g>
<g id="形状_1_拷贝_5">
	<g>
		<path fill-rule="evenodd" clip-rule="evenodd" fill="#FF7200" d="M1024.1,0.1c-4.4,0-8,3.6-8,8c0,4.4,3.6,8,8,8c4.4,0,8-3.6,8-8
			C1032.1,3.6,1028.5,0.1,1024.1,0.1z"/>
	</g>
</g>
<g>
	<path fill="#FFFFFF" d="M29.4,236.1h-5.5l-4.5-26.3h-0.1l-4.4,26.3H9.3l-6.1-40.6h6.2l2.9,25.8h0.1l4.6-25.8h4.5l4.8,26.4h0.1
		l2.8-26.4h6.2L29.4,236.1z"/>
	<path fill="#FFFFFF" d="M79.5,195.5h5.9v40.6h-5.9V195.5z"/>
	<path fill="#FFFFFF" d="M135.1,201h-6.8v-5.5h19.4v5.5h-6.8v35.1h-5.9V201z"/>
	<path fill="#FFFFFF" d="M190.5,195.5h5.9v17.4h7.2v-17.4h5.9v40.6h-5.9V218h-7.2v18.1h-5.9V195.5z"/>
	<path fill="#FFFFFF" d="M306,195.5h5.9v34.8h11.6v5.8H306V195.5z"/>
	<path fill="#FFFFFF" d="M367.1,205.1c0-6.6,5.1-9.9,9.8-9.9s9.8,3.3,9.8,9.9v21.4c0,6.6-5.1,9.9-9.8,9.9s-9.8-3.3-9.8-9.9V205.1z
		 M372.9,226.5c0,2.8,1.8,4.1,4,4.1c2.1,0,4-1.3,4-4.1v-21.4c0-2.8-1.8-4.1-4-4.1c-2.1,0-4,1.3-4,4.1V226.5z"/>
	<path fill="#FFFFFF" d="M443.6,236.1h-5.2l-8.3-40.6h6.2l4.7,28.3h0.1l4.7-28.3h6.2L443.6,236.1z"/>
	<path fill="#FFFFFF" d="M495.6,195.5h17.5v5.5h-11.6v11.9h10.1v5.5h-10.1v11.9h11.6v5.8h-17.5V195.5z"/>
	<path fill="#FFFFFF" d="M632.2,236.1h-5.5l-4.5-26.3h-0.1l-4.4,26.3h-5.5l-6.1-40.6h6.2l2.9,25.8h0.1l4.6-25.8h4.5l4.8,26.4h0.1
		l2.8-26.4h6.2L632.2,236.1z"/>
	<path fill="#FFFFFF" d="M682.2,195.5h17.5v5.5H688v11.9h10.1v5.5H688v11.9h11.6v5.8h-17.5V195.5z"/>
	<path fill="#FFFFFF" d="M813.1,227c0,5-4.1,9.4-9.3,9.4c-4.5,0-9.6-2.2-9.6-9.6v-22.4c0-5.3,3.8-9.4,9.5-9.4c5.4,0,9.4,4,9.4,9.7
		v2.3h-5.9v-1.9c0-2.3-1.4-4.2-3.6-4.2c-2.9,0-3.6,2-3.6,4.7v20.8c0,2.3,0.9,4.2,3.6,4.2c1.6,0,3.7-0.9,3.7-4.1v-2h5.9V227z"/>
	<path fill="#FFFFFF" d="M858,195.5h9.4c6.9,0,10.3,4,10.3,11.9c0,4.7-1.3,8.1-5.1,10.1l6.3,18.5h-6.2l-5.5-17.3h-3.5v17.3H858
		V195.5z M863.9,213.6h3.3c4.1,0,4.7-2.3,4.7-6.3c0-4.1-0.7-6.3-5-6.3h-3V213.6z"/>
	<path fill="#FFFFFF" d="M922.7,195.5h17.5v5.5h-11.6v11.9h10.1v5.5h-10.1v11.9h11.6v5.8h-17.5V195.5z"/>
	<path fill="#FFFFFF" d="M990.6,195.5h4.9l9.1,40.6h-5.9l-1.7-8.7h-8l-1.7,8.7h-5.9L990.6,195.5z M993.1,207.2H993l-2.9,14.7h5.9
		L993.1,207.2z"/>
	<path fill="#FFFFFF" d="M1051.5,201h-6.8v-5.5h19.4v5.5h-6.8v35.1h-5.9V201z"/>
	<path fill="#FFFFFF" d="M1106.9,195.5h17.5v5.5h-11.6v11.9h10.1v5.5h-10.1v11.9h11.6v5.8h-17.5V195.5z"/>
</g>
<g id="形状_6">
	<g>
		<path fill-rule="evenodd" clip-rule="evenodd" fill="#FFFFFF" d="M594,297.7h-11.9v99.2H594V297.7z M605.7,416.5h-21.9v12h33.8
			v-146h-11.9V416.5z M558.6,416.2h-28.4v-67.3h26.6v28.4h-17.3v12h29.2v-52.4h-50.3v91.3H566l11.4-23.6l-10.6-5.3L558.6,416.2z
			 M549.5,282h-11.9v11.8l-28.5,32.1l8.9,8l25.6-28.8l25.6,28.8l8.9-8l-28.5-32.1V282z M696.7,376.9h41.6v-12h-41.6v-40.1H739v-12
			h-42.2v-30.8h-11.9v30.8H655v-21.8h-11.9V318l-10.4,26.8l11.1,4.2l9.2-24.1h31.8v40.1h-48v12h48v39.6h-52.8v12h111v-12h-46.4
			V376.9z M942.1,282h-11.9v42.1h-49.7v12h47.2l-46.8,86.8l10.4,5.7l44.9-83l44.7,83l10.4-5.7l-46.8-86.8h47.2v-12h-49.5V282z
			 M1060.4,303l47.7,43.2l7.9-9l-49.7-45.2v-9.8h-11.9v9.8l-49.8,45.2l8.1,9L1060.4,303z M1029.1,346.9h62.7v-12h-62.7V346.9z
			 M1005,378.6h24.9l-13.2,33.2v16.5h82.6l9.9-26.8l-11.1-4.2l-6.9,19h-62.7v-2l14.2-35.7h73.1v-12H1005V378.6z M157.3,324.1H135v12
			h10.4v88.8h23.4v-12h-11.5V324.1z M235.6,283h-66.3v12h15v53.5h-17.2v12h17.2v67h11.9v-67h27.5v63.8h22.4v-12h-10.6V283z
			 M223.7,348.5h-27.5V295h27.5V348.5z M148.5,309.7c4,0,7.3-3.3,7.3-7.4c0-4.1-3.3-7.4-7.3-7.4c-4,0-7.3,3.3-7.3,7.4
			C141.2,306.4,144.5,309.7,148.5,309.7z M336.3,302.5h24.6l9.4-11.8l-9.2-7.5l-5.8,7.3h-30.8v113l-9.6,17.5l10.4,6l11.1-20.1V347
			H349v82.6h11.9V347h9.6v-12h-34.1V302.5z M317,296h-22.3v-15.1h-11.9V296h-21.9v12H317V296z M318.5,366.3h-23.8v-20.1h23.8v-12
			h-59.2v12h23.6v20.1h-23.6v12h23.6v36.4h-8.1v12h20v-48.4h23.8V366.3z M268.3,319.6c0,4.1,3.3,7.4,7.3,7.4s7.3-3.3,7.3-7.4
			c0-4.1-3.3-7.4-7.3-7.4S268.3,315.5,268.3,319.6z M293.8,319.6c0,4.1,3.3,7.4,7.3,7.4s7.3-3.3,7.3-7.4c0-4.1-3.3-7.4-7.3-7.4
			S293.8,315.5,293.8,319.6z M267.4,389.5c-4,0-7.3,3.3-7.3,7.4c0,4.1,3.3,7.4,7.3,7.4c4,0,7.3-3.3,7.3-7.4
			C274.7,392.8,271.5,389.5,267.4,389.5z M308.4,389.5c-4,0-7.3,3.3-7.3,7.4c0,4.1,3.3,7.4,7.3,7.4c4,0,7.3-3.3,7.3-7.4
			C315.7,392.8,312.4,389.5,308.4,389.5z M475.5,360.2v-40.4h19.1v-12h-111v12h19.1v40.4l26.9,21.4l-46.4,36.9l7.4,9.1l48.3-38.4
			l48.5,38.4l7.4-9.1l-46.3-36.9L475.5,360.2z M414.6,354.6v-34.7h49v34.7L439,374.2L414.6,354.6z M439.1,297.6c4,0,7.3-3.3,7.3-7.4
			s-3.3-7.4-7.3-7.4c-4,0-7.3,3.3-7.3,7.4S435.1,297.6,439.1,297.6z M832.7,416.4h-40.4v-44.7h-11.9v56.7h58.2l11.5-15.5l-9.4-7.1
			L832.7,416.4z M865.4,312.6v-12h-47.7v-18.5h-11.9v18.5h-47.5v12h42.1l-43.7,44.6l8.4,8.3l46.7-47.4l46.8,47.4l8.4-8.3l-43.9-44.6
			H865.4z M811.8,341.6c-4,0-7.3,3.3-7.3,7.4c0,4.1,3.3,7.4,7.3,7.4s7.3-3.3,7.3-7.4C819.1,344.9,815.9,341.6,811.8,341.6z
			 M811.8,386.5c0,4.1,3.3,7.4,7.3,7.4c4,0,7.3-3.3,7.3-7.4c0-4.1-3.3-7.4-7.3-7.4C815.1,379.2,811.8,382.5,811.8,386.5z
			 M858.8,386.5c-4,0-7.3,3.3-7.3,7.4c0,4.1,3.3,7.4,7.3,7.4c4,0,7.3-3.3,7.3-7.4C866.1,389.8,862.9,386.5,858.8,386.5z
			 M764.8,386.5c-4,0-7.3,3.3-7.3,7.4c0,4.1,3.3,7.4,7.3,7.4s7.3-3.3,7.3-7.4C772.1,389.8,768.9,386.5,764.8,386.5z M113.3,366.7
			l8.4-8.3l-21.1-21.3h21v-12H93.6V315h27.9v-12H93.6v-21.9H81.8v21.9h-28v12h28v10.1h-28v12h21.1l-21.1,21.3l8.2,8.3l1.6-1.7h34.8
			v17.8H75.7v-12.6H63.8v24.6h41.1v34.6h11.9v-46.5h-6.4v-19.1L113.3,366.7z M75.5,353.1L87.7,341l12,12.1H75.5z M56.5,417.6h45.2
			v-12H56.5V417.6z M15.6,409.3L11,425.1l11.4,3.3l5.1-17.8v-36c1.3,1.7,3.4,2.8,5.7,2.8c2.2,0,4.1-1,5.5-2.5v40.8h-6.9v12h18.8
			V286.4h-35V409.3z M27.5,298.4h11.2v29.3c-1.3-1.5-3.3-2.5-5.5-2.5c-2.3,0-4.4,1.1-5.7,2.8V298.4z M27.5,337.1
			c1.3,1.7,3.4,2.8,5.7,2.8c2.2,0,4.1-1,5.5-2.5v27.8c-1.3-1.5-3.3-2.5-5.5-2.5c-2.3,0-4.4,1.1-5.7,2.8V337.1z M109.4,297.9
			c4,0,7.3-3.3,7.3-7.4c0-4.1-3.3-7.4-7.3-7.4c-4,0-7.3,3.3-7.3,7.4C102.1,294.6,105.4,297.9,109.4,297.9z M65.3,297.9
			c4,0,7.3-3.3,7.3-7.4c0-4.1-3.3-7.4-7.3-7.4c-4,0-7.3,3.3-7.3,7.4C58,294.6,61.3,297.9,65.3,297.9z"/>
	</g>
</g>
</svg>
