<svg xmlns="http://www.w3.org/2000/svg" width="640" height="640" viewBox="1656.275 4923.171 376.909 397.561">
    <defs>
        <style>
            .cls-0 { opacity: 0.33; } .cls-1 { fill: #ed7019; } .cls-2 { fill: #1b2d72; }
        </style>
    </defs>
    <g id="Group_37" class="cls-0" data-name="Group 37" transform="translate(1614.362 5143.06) scale(0.5) rotate(-45)">
        <ellipse id="Ellipse_2" cx="7.302" cy="7.302" class="cls-1" data-name="Ellipse 2" rx="7.302" ry="7.302" transform="translate(296.366 0)"/>
        <ellipse id="Ellipse_3" cx="7.302" cy="7.302" class="cls-1" data-name="Ellipse 3" rx="7.302" ry="7.302" transform="translate(266.73 59.273)"/>
        <ellipse id="Ellipse_4" cx="7.302" cy="7.302" class="cls-1" data-name="Ellipse 4" rx="7.302" ry="7.302" transform="translate(296.366 59.273)"/>
        <ellipse id="Ellipse_5" cx="7.302" cy="7.302" class="cls-1" data-name="Ellipse 5" rx="7.302" ry="7.302" transform="translate(326.003 59.273)"/>
        <ellipse id="Ellipse_6" cx="7.302" cy="7.302" class="cls-1" data-name="Ellipse 6" rx="7.302" ry="7.302" transform="translate(281.333 29.637)"/>
        <ellipse id="Ellipse_7" cx="7.302" cy="7.302" class="cls-1" data-name="Ellipse 7" rx="7.302" ry="7.302" transform="translate(310.97 29.637)"/>
        <ellipse id="Ellipse_8" cx="7.302" cy="7.302" class="cls-2" data-name="Ellipse 8" rx="7.302" ry="7.302" transform="translate(0 59.273)"/>
        <ellipse id="Ellipse_9" cx="7.302" cy="7.302" class="cls-2" data-name="Ellipse 9" rx="7.302" ry="7.302" transform="translate(29.637 59.273)"/>
        <ellipse id="Ellipse_10" cx="7.302" cy="7.302" class="cls-2" data-name="Ellipse 10" rx="7.302" ry="7.302" transform="translate(148.183 59.273)"/>
        <ellipse id="Ellipse_11" cx="7.302" cy="7.302" class="cls-2" data-name="Ellipse 11" rx="7.302" ry="7.302" transform="translate(177.82 59.273)"/>
        <ellipse id="Ellipse_12" cx="7.302" cy="7.302" class="cls-2" data-name="Ellipse 12" rx="7.302" ry="7.302" transform="translate(0 88.91)"/>
        <ellipse id="Ellipse_13" cx="7.302" cy="7.302" class="cls-2" data-name="Ellipse 13" rx="7.302" ry="7.302" transform="translate(29.637 88.91)"/>
        <ellipse id="Ellipse_14" cx="7.302" cy="7.302" class="cls-2" data-name="Ellipse 14" rx="7.302" ry="7.302" transform="translate(148.183 88.91)"/>
        <ellipse id="Ellipse_15" cx="7.302" cy="7.302" class="cls-2" data-name="Ellipse 15" rx="7.302" ry="7.302" transform="translate(177.82 88.91)"/>
        <ellipse id="Ellipse_16" cx="7.302" cy="7.302" class="cls-2" data-name="Ellipse 16" rx="7.302" ry="7.302" transform="translate(0 118.546)"/>
        <ellipse id="Ellipse_17" cx="7.302" cy="7.302" class="cls-2" data-name="Ellipse 17" rx="7.302" ry="7.302" transform="translate(29.637 118.546)"/>
        <ellipse id="Ellipse_18" cx="7.302" cy="7.302" class="cls-2" data-name="Ellipse 18" rx="7.302" ry="7.302" transform="translate(148.183 118.546)"/>
        <ellipse id="Ellipse_19" cx="7.302" cy="7.302" class="cls-2" data-name="Ellipse 19" rx="7.302" ry="7.302" transform="translate(177.82 118.546)"/>
        <ellipse id="Ellipse_20" cx="7.302" cy="7.302" class="cls-2" data-name="Ellipse 20" rx="7.302" ry="7.302" transform="translate(207.456 118.546)"/>
        <ellipse id="Ellipse_21" cx="7.302" cy="7.302" class="cls-2" data-name="Ellipse 21" rx="7.302" ry="7.302" transform="translate(237.093 118.546)"/>
        <ellipse id="Ellipse_22" cx="7.302" cy="7.302" class="cls-2" data-name="Ellipse 22" rx="7.302" ry="7.302" transform="translate(266.73 118.546)"/>
        <ellipse id="Ellipse_23" cx="7.302" cy="7.302" class="cls-2" data-name="Ellipse 23" rx="7.302" ry="7.302" transform="translate(0 148.183)"/>
        <ellipse id="Ellipse_24" cx="7.302" cy="7.302" class="cls-2" data-name="Ellipse 24" rx="7.302" ry="7.302" transform="translate(29.637 148.183)"/>
        <ellipse id="Ellipse_25" cx="7.302" cy="7.302" class="cls-2" data-name="Ellipse 25" rx="7.302" ry="7.302" transform="translate(148.183 148.183)"/>
        <ellipse id="Ellipse_26" cx="7.302" cy="7.302" class="cls-2" data-name="Ellipse 26" rx="7.302" ry="7.302" transform="translate(177.82 148.183)"/>
        <ellipse id="Ellipse_27" cx="7.302" cy="7.302" class="cls-2" data-name="Ellipse 27" rx="7.302" ry="7.302" transform="translate(207.456 148.183)"/>
        <ellipse id="Ellipse_28" cx="7.302" cy="7.302" class="cls-2" data-name="Ellipse 28" rx="7.302" ry="7.302" transform="translate(237.093 148.183)"/>
        <ellipse id="Ellipse_29" cx="7.302" cy="7.302" class="cls-2" data-name="Ellipse 29" rx="7.302" ry="7.302" transform="translate(266.73 148.183)"/>
        <ellipse id="Ellipse_30" cx="7.302" cy="7.302" class="cls-2" data-name="Ellipse 30" rx="7.302" ry="7.302" transform="translate(296.366 148.183)"/>
        <ellipse id="Ellipse_31" cx="7.302" cy="7.302" class="cls-2" data-name="Ellipse 31" rx="7.302" ry="7.302" transform="translate(0 177.82)"/>
        <ellipse id="Ellipse_32" cx="7.302" cy="7.302" class="cls-2" data-name="Ellipse 32" rx="7.302" ry="7.302" transform="translate(29.637 177.82)"/>
        <ellipse id="Ellipse_33" cx="7.302" cy="7.302" class="cls-2" data-name="Ellipse 33" rx="7.302" ry="7.302" transform="translate(148.183 177.82)"/>
        <ellipse id="Ellipse_34" cx="7.302" cy="7.302" class="cls-2" data-name="Ellipse 34" rx="7.302" ry="7.302" transform="translate(177.82 177.82)"/>
        <ellipse id="Ellipse_35" cx="7.302" cy="7.302" class="cls-2" data-name="Ellipse 35" rx="7.302" ry="7.302" transform="translate(296.366 177.82)"/>
        <ellipse id="Ellipse_36" cx="7.302" cy="7.302" class="cls-2" data-name="Ellipse 36" rx="7.302" ry="7.302" transform="translate(326.003 177.82)"/>
        <ellipse id="Ellipse_37" cx="7.302" cy="7.302" class="cls-2" data-name="Ellipse 37" rx="7.302" ry="7.302" transform="translate(0 207.456)"/>
        <ellipse id="Ellipse_38" cx="7.302" cy="7.302" class="cls-2" data-name="Ellipse 38" rx="7.302" ry="7.302" transform="translate(29.637 207.456)"/>
        <ellipse id="Ellipse_39" cx="7.302" cy="7.302" class="cls-2" data-name="Ellipse 39" rx="7.302" ry="7.302" transform="translate(148.183 207.456)"/>
        <ellipse id="Ellipse_40" cx="7.302" cy="7.302" class="cls-2" data-name="Ellipse 40" rx="7.302" ry="7.302" transform="translate(177.82 207.456)"/>
        <ellipse id="Ellipse_41" cx="7.302" cy="7.302" class="cls-2" data-name="Ellipse 41" rx="7.302" ry="7.302" transform="translate(296.366 207.456)"/>
        <ellipse id="Ellipse_42" cx="7.302" cy="7.302" class="cls-2" data-name="Ellipse 42" rx="7.302" ry="7.302" transform="translate(326.003 207.456)"/>
        <ellipse id="Ellipse_43" cx="7.302" cy="7.302" class="cls-2" data-name="Ellipse 43" rx="7.302" ry="7.302" transform="translate(29.637 237.093)"/>
        <ellipse id="Ellipse_44" cx="7.302" cy="7.302" class="cls-2" data-name="Ellipse 44" rx="7.302" ry="7.302" transform="translate(59.273 237.093)"/>
        <ellipse id="Ellipse_45" cx="7.302" cy="7.302" class="cls-2" data-name="Ellipse 45" rx="7.302" ry="7.302" transform="translate(88.91 237.093)"/>
        <ellipse id="Ellipse_46" cx="7.302" cy="7.302" class="cls-2" data-name="Ellipse 46" rx="7.302" ry="7.302" transform="translate(118.546 237.093)"/>
        <ellipse id="Ellipse_47" cx="7.302" cy="7.302" class="cls-2" data-name="Ellipse 47" rx="7.302" ry="7.302" transform="translate(148.183 237.093)"/>
        <ellipse id="Ellipse_48" cx="7.302" cy="7.302" class="cls-2" data-name="Ellipse 48" rx="7.302" ry="7.302" transform="translate(177.82 237.093)"/>
        <ellipse id="Ellipse_49" cx="7.302" cy="7.302" class="cls-2" data-name="Ellipse 49" rx="7.302" ry="7.302" transform="translate(296.366 237.093)"/>
        <ellipse id="Ellipse_50" cx="7.302" cy="7.302" class="cls-2" data-name="Ellipse 50" rx="7.302" ry="7.302" transform="translate(326.003 237.093)"/>
        <ellipse id="Ellipse_51" cx="7.302" cy="7.302" class="cls-2" data-name="Ellipse 51" rx="7.302" ry="7.302" transform="translate(59.273 266.73)"/>
        <ellipse id="Ellipse_52" cx="7.302" cy="7.302" class="cls-2" data-name="Ellipse 52" rx="7.302" ry="7.302" transform="translate(88.91 266.73)"/>
        <ellipse id="Ellipse_53" cx="7.302" cy="7.302" class="cls-2" data-name="Ellipse 53" rx="7.302" ry="7.302" transform="translate(118.546 266.73)"/>
        <ellipse id="Ellipse_54" cx="7.302" cy="7.302" class="cls-2" data-name="Ellipse 54" rx="7.302" ry="7.302" transform="translate(148.183 266.73)"/>
        <ellipse id="Ellipse_55" cx="7.302" cy="7.302" class="cls-2" data-name="Ellipse 55" rx="7.302" ry="7.302" transform="translate(177.82 266.73)"/>
        <ellipse id="Ellipse_56" cx="7.302" cy="7.302" class="cls-2" data-name="Ellipse 56" rx="7.302" ry="7.302" transform="translate(207.456 266.73)"/>
        <ellipse id="Ellipse_57" cx="7.302" cy="7.302" class="cls-2" data-name="Ellipse 57" rx="7.302" ry="7.302" transform="translate(237.093 266.73)"/>
        <ellipse id="Ellipse_58" cx="7.302" cy="7.302" class="cls-2" data-name="Ellipse 58" rx="7.302" ry="7.302" transform="translate(266.73 266.73)"/>
        <ellipse id="Ellipse_59" cx="7.302" cy="7.302" class="cls-2" data-name="Ellipse 59" rx="7.302" ry="7.302" transform="translate(296.366 266.73)"/>
        <ellipse id="Ellipse_60" cx="7.302" cy="7.302" class="cls-2" data-name="Ellipse 60" rx="7.302" ry="7.302" transform="translate(148.183 296.366)"/>
        <ellipse id="Ellipse_61" cx="7.302" cy="7.302" class="cls-2" data-name="Ellipse 61" rx="7.302" ry="7.302" transform="translate(177.82 296.366)"/>
        <ellipse id="Ellipse_62" cx="7.302" cy="7.302" class="cls-2" data-name="Ellipse 62" rx="7.302" ry="7.302" transform="translate(207.456 296.366)"/>
        <ellipse id="Ellipse_63" cx="7.302" cy="7.302" class="cls-2" data-name="Ellipse 63" rx="7.302" ry="7.302" transform="translate(237.093 296.366)"/>
        <ellipse id="Ellipse_64" cx="7.302" cy="7.302" class="cls-2" data-name="Ellipse 64" rx="7.302" ry="7.302" transform="translate(266.73 296.366)"/>
        <ellipse id="Ellipse_65" cx="7.302" cy="7.302" class="cls-2" data-name="Ellipse 65" rx="7.302" ry="7.302" transform="translate(148.183 326.003)"/>
        <ellipse id="Ellipse_66" cx="7.302" cy="7.302" class="cls-2" data-name="Ellipse 66" rx="7.302" ry="7.302" transform="translate(177.82 326.003)"/>
        <ellipse id="Ellipse_67" cx="7.302" cy="7.302" class="cls-2" data-name="Ellipse 67" rx="7.302" ry="7.302" transform="translate(148.183 355.21)"/>
        <ellipse id="Ellipse_68" cx="7.302" cy="7.302" class="cls-2" data-name="Ellipse 68" rx="7.302" ry="7.302" transform="translate(177.82 355.21)"/>
        <ellipse id="Ellipse_69" cx="7.302" cy="7.302" class="cls-2" data-name="Ellipse 69" rx="7.302" ry="7.302" transform="translate(148.183 384.847)"/>
        <ellipse id="Ellipse_70" cx="7.302" cy="7.302" class="cls-2" data-name="Ellipse 70" rx="7.302" ry="7.302" transform="translate(177.82 384.847)"/>
    </g>
</svg>
