<svg xmlns="http://www.w3.org/2000/svg" viewBox="1100.22 3612.2 175.5 53.82">
  <defs>
    <style>
      .cls-1 {
        fill: #ddd;
      }
    </style>
  </defs>
  <path id="主题解读" class="cls-1" d="M42.72,3H2.22V-1.32H20.28V-15.3H4.8v-4.32H20.28V-33.06H3.84v-4.32H41.1v4.32H24.6v13.44H40.14v4.32H24.6V-1.32H42.72ZM22.92-39.66l-4.38-5.82,3.48-2.58,4.38,5.82ZM47.34,2.4l2.04-6.18V-16.8H53.7V-4.5l2.94,2.58v-17.1H47.28v-4.32H66.9v4.32H60.96v6.42H66.9v4.32H60.96V-.9h26.7V3.42H55.98L52.56.36l-1.08,3.3Zm1.38-29.16v-21.3H65.58v21.3ZM87-43.225H79.44V-37.5h6.78v21.78H81.9V-33.18H72.6v17.46H68.28V-37.5h6.84v-5.725h-7.5V-47.52H87ZM79.44-29.7v13.74L87.48-5.58,84-2.88l-6.72-8.64L70.5-2.88l-3.42-2.7,8.04-10.38V-29.7ZM61.26-31.08V-43.74H53.04v12.66Zm-4.32-10.2,3.78,5.1L57.24-33.6l-3.72-5.04ZM92.4,2.64l1.38-5.1V-35.04l-1.38-.42,2.4-8.16v-5.82h4.32v3.78h11.94v5.46l-1.5,4.92h1.8V3.84h-4.32V-7.62h-2.4V3.3h-4.32V-7.62H98.1v5.7L96.6,3.6Zm40.14-20.22h-6.3v8.64h6.3v4.32h-6.3V4.02h-4.32V-4.62h-9.18V-8.94h9.18v-8.64h-3.78l-2.46,5.04-3.9-1.92,2.88-5.82V-25.8h4.32v3.9h2.94v-6.78h4.32v6.78h6.3ZM112.86-46.74h19.26V-29.7h-7.68v-4.32h3.36v-8.4h-7.2v8.04l-4.68,5.7-3.36-2.82,3.72-4.56v-6.36h-3.42Zm-6.12,6.12v-.72H98.52l-1.74,6.06h8.34Zm.3,9.66h-2.4v7.5h2.4Zm-2.4,19.02h2.4v-7.2h-2.4ZM98.1-23.46h2.22v-7.5H98.1Zm0,11.52h2.22v-7.2H98.1ZM149.16-.48l11.16-9.3H148.98V-14.1h13.08V-28.38h4.32V-14.1h11.34v4.32h-9.9l9.72,9.36-3.06,3.18L164.1-7.2,151.98,2.82Zm27.66-40.38H165.48v5.82H177.3v12.72h-4.32v-8.4H149.76v-4.32h11.4v-5.82H149.82v-4.32h11.34V-49.8h4.32v4.62h11.34Zm-39.54,7.08h7.98V-1.32h3.36V3h-7.68V-29.46h-3.66Zm5.16-4.44-4.26-5.76,3.42-2.58,4.26,5.7ZM153.72-15l-3.48-4.62,3.48-2.58,3.48,4.56Zm2.4-7.62-3.42-4.62,3.42-2.58,3.48,4.56Z" transform="translate(1098 3662)"/>
</svg>
