<svg xmlns="http://www.w3.org/2000/svg" viewBox="1100.34 5798.88 166.2 51.3">
  <defs>
    <style>
      .cls-1 {
        fill: #fff;
      }
    </style>
  </defs>
  <path id="关于UP_" data-name="关于UP+" class="cls-1" d="M40.2-33.6H24.66v10.26H41.58v4.32H24.66v.18L42.66.24,39.48,3.18,22.5-14.88,5.46,3.18,2.34.24l18-19.08v-.18H3.42v-4.32H20.34V-33.6H4.86v-4.32H40.2ZM28.62-42.42l4.26-5.7,3.42,2.58-4.26,5.7ZM12.96-39.84,8.7-45.54l3.42-2.58,4.26,5.7ZM86.1-43.62H69.54v17.64H87.72v4.32H69.54V3.12H55.92V-1.2h9.3V-21.66H47.28v-4.32H65.22V-43.62H48.9v-4.32H86.1Zm29.7,2.4V-7.86L111.72,0H97.08L93-7.86V-41.22h4.8V-9q.66,1.2,1.14,2.04t1.14,2.16h8.64q.54-1.08,1.11-2.1T111-9.06V-41.22ZM121.5,0V-41.16h16.38l5.16,4.74v17.7l-5.16,4.74H126.3V0Zm14.4-18.78q.6-.54,1.11-.96t1.23-1.08V-34.26q-.66-.6-1.14-.99t-1.2-1.11h-9.6v17.58Zm12.3-4.98H156v-8.76h4.8v8.76h7.74v4.8H160.8v8.76H156v-8.76h-7.8Z" transform="translate(1098 5847)"/>
</svg>
