<svg xmlns="http://www.w3.org/2000/svg" viewBox="1114.28 880.14 175.44 54.06">
  <defs>
    <style>
      .cls-1 {
        fill: #ddd;
      }
    </style>
  </defs>
  <path id="嘉宾阵容" class="cls-1" d="M41.28-32.76v10.8H35.52v3.48h7.14v4.32H13.26l-.9,3.18h9.12V3.66H14.76V-.66h2.4v-6H11.1L8.1,3.66H2.28V-.66H4.86q.42-1.5.84-2.97t.9-3.03H2.34v-4.32H7.92l.9-3.18H2.34v-4.32h7.2v-3.48H3.72v-10.8Zm1.38-9.72H24.72v2.58h17.1v4.32H3.24V-39.9H20.4v-2.58H2.34V-46.8H20.4v-2.94h4.32v2.94H42.66Zm-1.14,31.5V3.66H23.82V-10.98ZM8.04-28.44v2.16H36.96v-2.16Zm5.82,9.96H31.2v-3.48H13.86ZM28.14-6.66v6H37.2v-6ZM87.66-8.88H47.28V-13.2H53.4V-35.34H76.44l3.18-2.52,2.7,3.48-4.26,3.36H57.72v5.76H83.7v4.32H76.98v7.74H87.66ZM47.58-34.74V-44.76H65.34v-5.1h4.32v5.1h17.7v9.72H83.04v-5.4H51.9v5.7ZM57.72-13.2H72.66v-7.74H57.72ZM51.42-.06l4.2-5.82L59.1-3.42,54.84,2.46ZM80.1,2.46,75.84-3.42l3.48-2.46,4.2,5.82Zm28.32-13.74h10.56v-7.86H108.96v-6.72l4.08-12h-4.62v-4.32h6.06l2.28-6.6,4.08,1.38-1.8,5.22h13.2v4.32H117.6l-4.32,12.72v1.68h5.7v-9.06h4.32v9.06h8.88v4.32H123.3v7.86h8.94v4.32H123.3V4.2h-4.32V-6.96H108.42ZM92.7,4.2V-48h13.26v14.88l-3.3,7.74h3.3V-2.7H98.7V-7.02h2.94V-21.06H97.98v-4.26l3.66-8.58v-9.78H97.02V4.2Zm82.32-14.58-4.32-3.48V3.06H144.3V-13.86l-4.32,3.48-2.7-3.36,18.06-14.58v-3.42h4.32v3.42l18.06,14.58Zm-36.3-23.34v-10.5h16.62V-49.8h4.32v5.58h16.56V-33.9H171.9v-6H143.04v6.18Zm27.66,21.84H148.62V-1.26h17.76Zm-19.2-4.32h20.64L157.5-24.54Zm7.74-17.46-13.14,9.48-2.46-3.6L152.4-37.2Zm7.68-3.48,13.08,9.42-2.46,3.48-13.08-9.48Z" transform="translate(1112 930)"/>
</svg>
