<svg xmlns="http://www.w3.org/2000/svg" viewBox="1100.28 1655.14 174.9 53.94">
  <defs>
    <style>
      .cls-1 {
        fill: #ddd;
      }
    </style>
  </defs>
  <path id="新闻热点" class="cls-1" d="M34.92,4.08V-25.74H30.3v21.6L26.28,3.12,22.5.96l3.48-6.3v-40.8H37.2l2.1-2.64,3.36,2.7-3.42,4.26H30.3v11.76H42.72v4.32H39.24V4.08ZM23.82-26.04H15.18v7.26h8.64v4.32H15.18V3H7.92V-1.32h2.94V-14.46H2.28v-4.32h8.58v-7.26H2.28v-4.32H23.82Zm-.54-13.8H2.88v-4.32h7.98v-5.46h4.32v5.46h8.1ZM7.26-31.44,3.9-36.18,7.5-38.7l3.36,4.8ZM15.3-33.9l3.36-4.8,3.54,2.52-3.3,4.74ZM2.76-5.94l3.3-4.74,3.6,2.46L6.3-3.48Zm17.1,2.46L16.5-8.22l3.54-2.46L23.4-5.94ZM72.18-.12V-6.54H55.32v-4.32h3.12V-32.4H55.32v-4.32H79.68v4.32H76.5v21.54h3.18v4.32H76.5V-.12ZM77.76-1.2h4.02V-42H62.82v-4.32H86.1V3.12H77.76Zm-15-9.66h9.42V-32.4H62.76ZM48.84,4.08V-38.16h4.32V4.08ZM56.28-39.6l-4.26-5.76,3.42-2.58,4.26,5.76ZM67.44-13.32l-3.42-4.56,3.48-2.64,3.42,4.62Zm0-9.42L64.02-27.3l3.48-2.58,3.42,4.56Zm51.66-27v6.9h10.02v26.58h3.54v4.32H124.8V-38.52h-6.06L117.12-26.7l6.18,5.76-2.94,3.12-3.9-3.6-1.26,9.48h-6.18v-4.32h2.34q.3-2.22.57-4.41t.57-4.47l-3.9-3.66,2.94-3.18,1.68,1.62,1.14-8.16h-4.38v-4.32h4.8v-6.9ZM94.68-16.26H99v-7.62l-5.88.96-.78-4.26L99-28.26V-38.52H92.52v-4.32H99v-7.02h4.32v7.02h5.04v4.32h-5.04v9.54l4.56-.78.78,4.2-5.34.9v12.72H94.68ZM118.2,2.52l-4.32-5.76,3.48-2.58,4.32,5.7Zm-10.62,0-4.32-5.76,3.48-2.58,4.32,5.7Zm21.18,0-4.32-5.76,3.42-2.58,4.32,5.7Zm-36-2.64,4.32-5.7,3.42,2.58L96.18,2.52ZM173.88-32.1v19.5H141.06V-32.1h12.42V-49.86h4.32v5.4h15.42v4.32H157.8v8.04Zm-28.5,4.32v10.86h24.18V-27.78Zm7.2,30.24-4.32-5.82,3.48-2.58,4.32,5.76Zm10.62,0-4.32-5.82,3.48-2.58,4.32,5.76ZM137.76-.18l4.32-5.76,3.42,2.58-4.32,5.82Zm36,2.64-4.32-5.82,3.42-2.58,4.32,5.76Z" transform="translate(1098 1705)"/>
</svg>
