<svg xmlns="http://www.w3.org/2000/svg" viewBox="1090.28 2787.2 175.38 53.16">
  <defs>
    <style>
      .cls-1 {
        fill: #ddd;
      }
    </style>
  </defs>
  <path id="现场直播" class="cls-1" d="M19.2-14.64V-48.48H40.56v33.84H36.24V-44.16H23.52v29.52ZM17.52,1.38l10.2-20.64V-38.28h4.32v18.66h1.74V-1.26H36.3q.66-1.2,1.26-2.28t1.2-2.22l3.9,1.92L39,3.06H29.46V-12.96L21.42,3.3ZM2.28-5.88H7.44v-18H3.06V-28.2H7.44V-42.18H2.7V-46.5H16.56v4.32h-4.8V-28.2H16.2v4.32H11.76v18h5.16v4.32H2.28Zm60.54-42.3H86.58v6.54L69.3-28.98H87.72V3.12h-9V-1.2H83.4V-24.66H78.9v16.2L73.32,3.18l-3.9-1.8,5.16-10.8V-24.66H70.44V-8.52L64.92,3.18l-3.9-1.8,5.1-10.74v-15.3h-2.4v-5.58L82.26-43.8v-.06H62.82ZM60.36-30.84H57v19.26l2.7-1.8,2.4,3.66L49.62-1.56l-2.4-3.66,5.46-3.54V-30.84H48.36v-4.32h4.32V-47.58H57v12.42h3.36ZM114.6-49.8v4.08h18.06v4.32H114.6v5.7h13.26V-1.5h4.8V2.82H92.28V-1.5h4.8V-35.7h13.2v-5.7h-18v-4.32h18V-49.8Zm8.94,18.42H101.4V-1.5h22.14Zm-10.92,18.6-3.72-4.98,3.42-2.58,3.72,4.98Zm0-9.18-3.72-4.98,3.42-2.58,3.72,4.98Zm0,18.6L108.9-8.28l3.42-2.58,3.72,4.92Zm63.3-16.56V3.36H152.16V-19.92Zm-14.04-1.92V-28.2l-8.64,7.02-2.7-3.36,7.44-6.06h-7.56v-4.32h11.46v-8.22h-9.9v-4.32h19.5l3.42-1.56,1.74,3.96-4.14,1.92h-6.3v8.22h11.46v4.32H170.1l7.44,6.06-2.7,3.36L166.2-28.2v6.36ZM139.26-1.32h2.64v-14.4h-4.02v-4.32h4.02V-34.86h-4.62v-4.32h4.62V-49.74h4.32v10.56h3.54v4.32h-3.54v11.88l1.44-1.62,3.24,2.88-4.68,5.28V3h-6.96Zm32.34.36V-6.18h-5.4V-.96Zm-15.12,0h5.4V-6.18h-5.4Zm0-14.64v5.1h5.4v-5.1Zm15.12,0h-5.4v5.1h5.4ZM156.18-35.88l-2.82-4.02,3.54-2.46,2.88,3.96Zm12.18-2.52,2.88-3.96,3.54,2.46-2.88,4.02Z" transform="translate(1088 2837)"/>
</svg>
