<svg xmlns="http://www.w3.org/2000/svg" viewBox="1100.28 4985.32 175.44 53.88">
  <defs>
    <style>
      .cls-1 {
        fill: #ddd;
      }
    </style>
  </defs>
  <path id="精彩视频" class="cls-1" d="M5.88-40.02l2.4,3.24V-49.56H12.6v12.9l2.52-3.36,3.42,2.58-3.66,4.98L12.6-34.14v4.44h5.94v4.32H13.56L18.72-11.7,14.7-10.2l-2.1-5.52V4.14H8.28V-15.54L6.3-10.2,2.28-11.7,7.32-25.38H2.4V-29.7H8.28v-4.32L6.12-32.46,2.4-37.44Zm36.18-1.8H33v3.96h8.4v4.32H33v3.9h9.72v4.32H19.02v-4.32h9.66v-3.9H20.34v-4.32h8.34v-3.96H19.62v-4.32h9.06v-3.48H33v3.48h9.06ZM37.08,4.08V-18.84H24.66V4.08H20.34V-23.16H41.4V4.08ZM30.96-15.36l3.36,4.92-3.54,2.4-3.36-4.92Zm0,10.02L34.32-.42,30.78,1.92,27.42-3ZM47.22.18l8.28-18.9H47.22v-4.32h9.42v-5.28h4.32v5.28h9.48v4.32H62.1L70.44.18,66.42,1.92,60.96-10.56V4.2H56.64V-10.5L51.24,1.92ZM70.98-45.3,67.2-42.12H47.82v-4.32H65.64l2.64-2.22ZM87.72-24.18l-5.1,5.58H71.76v-4.32h8.88l3.84-4.2Zm0,21.66-5.1,5.64H71.76V-1.2h8.88l3.84-4.2Zm0-43.2-5.1,5.58H71.76v-4.32h8.88q.96-1.08,1.89-2.07t1.95-2.07ZM59.16-30.36l-4.2-5.82,3.48-2.52L62.46-33l4.08-5.7,3.54,2.52-4.14,5.82L62.46-32.7Zm-7.32,0-4.2-5.82,3.42-2.52,4.26,5.88Zm57.48,16.74V-48.18h21.36v34.56h-4.32V-43.86H113.64v30.24Zm12.9-24v36.3h3.9l2.64-5.46,3.9,1.92L128.82,3H117.9V-10.74L109.5,3.3l-3.66-2.28L117.9-19.14V-37.62ZM98.4,4.14V-18.9L96.12-15l-3.78-2.16,10.5-18H93.6v-4.32h13.74v5.16l-4.2,7.14,6.12,7.8-3.48,2.7-3.06-3.96V4.14Zm2.52-45L97.2-45.78l3.48-2.58,3.72,4.92ZM177-43.92h-7.44v7.14h6.72v25.02h-4.32v-20.7h-9.18v20.7h-4.32V-36.78h6.78v-7.14h-7.5v-4.32H177ZM137.34-30.6h1.98V-45.84h4.32V-30.6h2.76V-49.68h4.32V-30.6h6.96v4.32H137.34Zm32.22,2.7v16.08L177.72.72,174,3.06l-6.6-10.2-6.6,10.2L157.14.72l8.1-12.6V-27.9ZM137.28-.3l8.64-7.68V-23.4h4.32v11.52l4.92-4.38,2.94,3.24L140.22,2.94Zm.66-13.62,3.42-4.56,3.42,2.58-3.36,4.56Zm13.26-24.9,3.36-4.56,3.48,2.58-3.42,4.56Z" transform="translate(1098 5035)"/>
</svg>
