<svg xmlns="http://www.w3.org/2000/svg" viewBox="1090.22 4244.2 175.38 53.88">
  <defs>
    <style>
      .cls-1 {
        fill: #ddd;
      }
    </style>
  </defs>
  <path id="首推大作" class="cls-1" d="M15-49.8v6.48H29.94V-49.8h4.32v6.48h8.46V-39H24.66v6.66H38.88V2.88H6.06V-32.34H20.34V-39H2.22v-4.32h8.46V-49.8ZM10.38-28.02V-1.44H34.56V-28.02Zm12.54,11.7-4.38-5.76,3.48-2.64L26.4-18.9Zm0,11.76-4.38-5.7,3.48-2.64L26.4-7.14Zm64.8-31.68H79.86v7.86h7.86v4.32H79.86v7.8h7.86v4.32H79.86v7.8h7.86V.18H67.86v3.9H63.54v-36.3l-3.42,4.2-3.36-2.7,3.3-4.14h-3.6v12.18L58.2-24.6l3.24,2.94-4.98,5.4V3.12H49.38V-1.2h2.76V-15.6H47.88v-4.32h4.26V-34.86H47.28v-4.32h4.86v-10.5h4.32v10.5H60.3v4.08l3.24-4.08V-48.6h4.32v8.04H77.4l-3.6-5.1,3.6-2.46,4.02,5.7-2.64,1.86h8.94ZM67.86-28.38h7.68v-7.86H67.86Zm0,24.24h7.68v-7.8H67.86Zm0-12.12h7.68v-7.8H67.86Zm64.8-13.86H115.5L132.54,1.2l-3.78,2.04L112.5-26.7,96.18,3.24,92.4,1.2l17.04-31.32H92.28v-4.32h18.06V-49.62h4.32v15.18h18Zm24.48,34.2v-41.1L153-30.18l-3.66-2.28,4.86-8.1v-9.12h4.32v7.56H177.6v4.32H161.46v11.28H177.6v4.32H161.46v10.62H177.6v4.32H161.46V4.08Zm-6.18-50.46-3.36,6.12V4.08h-4.32V-32.34l-2.16,3.9-3.78-2.1,9.84-17.88Z" transform="translate(1088 4294)"/>
</svg>
